<svg width="160" height="40" viewBox="0 0 160 40" fill="none" xmlns="http://www.w3.org/2000/svg">
<g clip-path="url(#clip0_2735_1055)">
<path fill-rule="evenodd" clip-rule="evenodd" d="M67.9044 14.3411C69.0513 14.3411 69.9811 13.4114 69.9811 12.2645C69.9811 11.1176 69.0513 10.1878 67.9044 10.1878C66.7575 10.1878 65.8278 11.1176 65.8278 12.2645C65.8278 13.4114 66.7575 14.3411 67.9044 14.3411ZM53.5022 16.8514C54.6179 16.1083 55.9637 15.6746 57.4133 15.6746V15.6726C61.2734 15.6726 64.4047 18.7489 64.4047 22.5459C64.4047 26.3429 61.2734 29.4213 57.4133 29.4213C55.9637 29.4213 54.6179 28.9876 53.5022 28.2445V29.5251H53.264C51.6943 29.5251 50.4219 28.2526 50.4219 26.6829V10.9289C52.1239 10.9289 53.5022 12.3092 53.5022 14.0092V16.8514ZM53.5735 22.5357C53.5735 24.6572 55.2918 26.3755 57.4133 26.3755C59.5347 26.3755 61.253 24.6572 61.253 22.5357C61.253 20.4143 59.5347 18.696 57.4133 18.696C55.2918 18.696 53.5735 20.4143 53.5735 22.5357ZM156.657 16.2223H159.737V29.5251H156.657V28.2913C155.555 29.0059 154.236 29.4213 152.815 29.4213C148.955 29.4213 145.824 26.3429 145.824 22.5459C145.824 18.7489 148.955 15.6726 152.815 15.6726C154.236 15.6726 155.555 16.0879 156.657 16.8025V16.2223ZM148.977 22.5357C148.977 24.6572 150.698 26.3755 152.817 26.3755V26.3775C154.934 26.3775 156.651 24.6674 156.659 22.552V22.5215C156.651 20.4061 154.937 18.696 152.817 18.696C150.698 18.696 148.977 20.4143 148.977 22.5357ZM139.028 15.8436H137.998C136.41 15.8436 135.029 16.7252 134.319 18.0262C133.616 16.7252 132.24 15.8436 130.658 15.8436H129.196C127.804 15.8436 126.592 16.6071 125.951 17.735V16.7293C125.951 16.4503 125.725 16.2223 125.444 16.2223H122.871V29.5271H125.462H125.853H125.951V21.2226C126.332 19.5613 127.816 18.3193 129.591 18.3193C130.188 18.3193 130.727 18.5596 131.118 18.9505C131.509 19.3414 131.751 19.8809 131.751 20.4774V29.5271H134.82V21.0882C135.245 19.4941 136.701 18.3193 138.429 18.3193C139.026 18.3193 139.565 18.5596 139.956 18.9505C140.347 19.3414 140.589 19.8809 140.589 20.4774V29.5271H143.66V20.4734C143.66 17.9162 141.585 15.8436 139.028 15.8436ZM66.7684 16.2223H66.3348V27.1227C66.3348 28.4501 67.4118 29.5271 68.7392 29.5271H69.4151V18.869C69.4151 17.4072 68.2302 16.2223 66.7684 16.2223ZM110.72 16.2223H107.64V16.8046C106.538 16.09 105.217 15.6746 103.8 15.6746C99.9378 15.6746 96.8086 18.7509 96.8086 22.548C96.8086 26.345 99.9378 29.4233 103.8 29.4233C105.217 29.4233 106.538 29.008 107.64 28.2934V29.5271H110.72V16.2223ZM103.8 26.3755C101.679 26.3755 99.9602 24.6572 99.9602 22.5357C99.9602 20.4143 101.679 18.696 103.8 18.696C105.921 18.696 107.64 20.4143 107.64 22.5357C107.64 24.6572 105.921 26.3755 103.8 26.3755ZM71.8643 23.2056C71.8643 19.4085 74.9935 16.3302 78.8557 16.3302C82.7158 16.3302 85.8471 19.4106 85.8471 23.2056C85.8471 27.0005 82.7179 30.0789 78.8557 30.0789C74.9935 30.0789 71.8643 27.0026 71.8643 23.2056ZM75.0159 23.1913C75.0159 25.3127 76.7343 27.0311 78.8557 27.0311C80.9751 27.0311 82.6955 25.3107 82.6955 23.1913C82.6955 21.0719 80.9771 19.3515 78.8557 19.3515C76.7343 19.3515 75.0159 21.0699 75.0159 23.1913ZM116.789 17.9406V16.7292C116.789 16.4503 116.563 16.2223 116.282 16.2223H113.709V27.1227C113.709 28.4501 114.786 29.5271 116.113 29.5271H116.789V21.4689C117.266 20.0824 118.579 19.0828 120.126 19.0828H120.857V16.2223H119.815C118.528 16.2223 117.406 16.9125 116.789 17.9406ZM88.8868 15.0191C88.8868 12.578 90.8636 10.5991 93.3047 10.5991L93.3068 10.595H94.4611C95.0964 10.595 95.6908 10.764 96.2059 11.0592V13.7772C95.5829 13.486 94.8887 13.3252 94.1558 13.3252C92.9484 13.3252 91.9671 14.3045 91.9671 15.5118V16.2182V16.3261H93.6508C94.9437 16.3261 95.9901 17.3726 95.9901 18.6654V19.3292H91.9671V27.1207C91.9671 28.4481 90.8901 29.5251 89.5627 29.5251H88.8868V19.3312H87.0442C86.7633 19.3312 86.5353 19.1032 86.5353 18.8222V16.8392C86.5353 16.5582 86.7633 16.3302 87.0442 16.3302H88.8868V15.0191Z" fill="#3C3C3B"/>
<path fill-rule="evenodd" clip-rule="evenodd" d="M34.3808 10.931C34.5009 10.0453 34.5294 9.14341 34.4623 8.23946V8.24149C34.2627 5.54999 33.2244 3.0804 31.612 1.09129C31.1417 0.511052 31.84 -0.280927 32.4793 0.101829C38.7438 3.85202 42.9358 10.7029 42.9358 18.5331C42.9358 18.7632 42.9338 18.9933 42.9256 19.2213C42.9155 19.5694 42.4207 19.6366 42.3169 19.3048C41.1157 15.4548 38.1514 12.3337 34.3808 10.931ZM27.9229 15.9902C28.7556 15.7622 29.6453 15.6726 30.5676 15.7561L30.5696 15.7541C34.1752 16.0798 37.0561 19.038 37.2841 22.6518C37.5549 26.9599 34.1406 30.5411 29.8896 30.5411C26.345 30.5411 23.3827 28.0532 22.6539 24.7285C22.5501 24.2541 22.1347 23.9121 21.6481 23.9121C21.1554 23.9121 20.7381 24.2622 20.6383 24.7448C19.9522 28.0552 17.0225 30.5431 13.5085 30.5431C9.2269 30.5431 5.80856 26.8499 6.26665 22.4747C6.61683 19.1317 9.27576 16.4341 12.6127 16.031C13.5757 15.9149 14.504 15.9882 15.3713 16.2183C15.8437 16.3445 16.3425 16.1348 16.5766 15.7052C16.8026 15.2899 16.7273 14.7768 16.3913 14.447C15.0375 13.1135 14.1986 11.2628 14.1986 9.21262C14.1986 4.97991 17.7778 1.58397 22.0736 1.88122C25.6834 2.13164 28.6131 5.04506 28.8798 8.65274C29.0406 10.8312 28.2527 12.8244 26.8866 14.2658C26.4631 14.7117 26.5059 15.4202 26.9864 15.8029C27.249 16.0147 27.5971 16.0798 27.9229 15.9902ZM21.6731 33.2186C21.6702 33.2163 21.6669 33.2139 21.6644 33.2122C19.4188 35.0507 16.5603 36.142 13.5064 36.142C12.4192 36.142 11.3442 36.0035 10.3079 35.7368C9.76435 35.5963 9.44064 36.3272 9.91501 36.6306C13.2499 38.7642 17.2138 40.0021 21.4669 40.0021C26.0193 40.0021 30.2397 38.5851 33.713 36.1684C33.9899 35.975 33.7802 35.5454 33.4545 35.6391C32.3021 35.9709 31.103 36.144 29.8896 36.144C26.9069 36.144 23.9915 35.1077 21.6807 33.2265V33.2245C21.6807 33.2245 21.6772 33.2217 21.6731 33.2186ZM10.8067 0.0244828C11.4134 0.0326266 11.7229 0.759455 11.3503 1.2379C11.1793 1.45574 11.0164 1.6797 10.8617 1.90772C9.40398 4.04545 8.59979 6.59648 8.59979 9.21469C8.59979 9.91709 8.65476 10.6093 8.76266 11.2873C5.59271 12.5557 3.02336 15.0639 1.6715 18.1891C1.55545 18.4558 1.44755 18.7245 1.34982 19.0014C1.26635 19.2417 1.03629 19.4045 0.779763 19.4045C0.68611 19.4045 0.580241 19.3699 0.478445 19.319C0.183234 19.1745 0 18.8671 0 18.5372V18.5332C0 18.3336 0.00203593 18.1362 0.00814374 17.9387C0.211737 10.4973 4.20013 4.00066 10.1186 0.307478C10.2509 0.224004 10.3853 0.142567 10.5197 0.0652015C10.6052 0.0387344 10.6968 0.0244828 10.7925 0.0244828H10.8067Z" fill="#CE244C"/>
</g>
<defs>
<clipPath id="clip0_2735_1055">
<rect width="159.737" height="40" fill="white"/>
</clipPath>
</defs>
</svg>
